<?xml version="1.0" encoding="UTF-8"?>
<svg version="1.1" xmlns="http://www.w3.org/2000/svg" width="200" height="200">
<path d="M0 0 C5.95257002 0.20924104 11.80873548 1.28427954 17.67382812 2.25976562 C18.90548706 2.45953003 20.137146 2.65929443 21.40612793 2.8651123 C24.6553031 3.39325152 27.90352552 3.92680732 31.15136719 4.46307373 C34.47581135 5.01059208 37.80143037 5.5508756 41.12695312 6.09179688 C47.63325635 7.15158818 54.13835484 8.21853722 60.64257812 9.29101562 C56.36667372 17.97302024 50.65291559 25.83009822 44.93164062 33.60693359 C43.06807449 36.16424134 41.65047975 38.26731076 40.64257812 41.29101562 C49.20260211 48.76515263 57.81947992 56.12856602 66.64257812 63.29101562 C69.04229961 65.241052 71.35502082 67.20679674 73.64257812 69.29101562 C73.64257812 69.95101562 73.64257812 70.61101562 73.64257812 71.29101562 C69.28376902 73.41128094 64.92380183 75.52913893 60.56274414 77.64477539 C59.07935021 78.36481756 57.59627481 79.08551631 56.11352539 79.80688477 C53.98211751 80.84368947 51.84957504 81.87812696 49.71679688 82.91210938 C49.05419357 83.23505478 48.39159027 83.55800018 47.70890808 83.89073181 C45.04195541 85.18133941 42.45729558 86.35277647 39.64257812 87.29101562 C39.31257812 95.87101562 38.98257813 104.45101562 38.64257812 113.29101562 C35.73445312 114.73476562 32.82632813 116.17851562 29.83007812 117.66601562 C21.38828499 121.87584825 13.02040443 126.2099544 4.68554688 130.62695312 C0.94681673 132.60738822 -2.80231245 134.56687327 -6.55664062 136.51757812 C-7.60360107 137.06172363 -8.65056152 137.60586914 -9.72924805 138.16650391 C-11.77953307 139.23125038 -13.83045491 140.29477169 -15.88208008 141.35693359 C-16.81238037 141.84049316 -17.74268066 142.32405273 -18.70117188 142.82226562 C-19.94157227 143.46518555 -19.94157227 143.46518555 -21.20703125 144.12109375 C-23.54580064 145.3518774 -23.54580064 145.3518774 -26.35742188 147.29101562 C-30.80354796 147.90028408 -33.25179287 146.49860945 -36.98632812 144.16992188 C-38.09121582 143.48945801 -39.19610352 142.80899414 -40.33447266 142.10791016 C-41.52978501 141.356704 -42.72493079 140.60523274 -43.91992188 139.85351562 C-45.15345903 139.08794115 -46.38768231 138.32347117 -47.62255859 137.56005859 C-49.54967574 136.36824965 -51.47609594 135.17541883 -53.39990234 133.97827148 C-58.02696006 131.1006768 -62.6843631 128.27806149 -67.36132812 125.48242188 C-68.65165905 124.7089826 -69.94194298 123.93546492 -71.23217773 123.16186523 C-73.09870987 122.0429596 -74.96611638 120.9257049 -76.83694458 119.81399536 C-78.56874684 118.78375441 -80.29524623 117.74461521 -82.02148438 116.70507812 C-83.00584473 116.11678223 -83.99020508 115.52848633 -85.00439453 114.92236328 C-87.35742188 113.29101562 -87.35742188 113.29101562 -89.35742188 110.29101562 C-90.73884263 102.0806847 -90.47786908 93.58848992 -90.35742188 85.29101562 C-91.2156958 85.03126953 -92.07396973 84.77152344 -92.95825195 84.50390625 C-96.46525894 83.25253724 -99.4971811 81.70323725 -102.74414062 79.88476562 C-103.32782913 79.55939819 -103.91151764 79.23403076 -104.51289368 78.89880371 C-106.35961579 77.86763798 -108.20220096 76.82931102 -110.04492188 75.79101562 C-111.29272177 75.09395873 -112.54076657 74.39734006 -113.7890625 73.70117188 C-122.81214494 68.65453358 -122.81214494 68.65453358 -126.35742188 66.29101562 C-124.9422019 62.04535571 -121.81570077 60.59841127 -118.23242188 58.22851562 C-117.52408203 57.75115967 -116.81574219 57.27380371 -116.0859375 56.78198242 C-113.84835883 55.27696798 -111.60338504 53.78348187 -109.35742188 52.29101562 C-107.89095485 51.30972462 -106.42480121 50.3279651 -104.95898438 49.34570312 C-101.43119953 46.98491511 -97.89635718 44.63505179 -94.35742188 42.29101562 C-95.65565662 38.47539168 -97.10709045 36.22010683 -100.04492188 33.47851562 C-104.06941966 29.60684687 -107.73161765 25.53379819 -111.35742188 21.29101562 C-111.94136719 20.62328125 -112.5253125 19.95554687 -113.12695312 19.26757812 C-117.35742188 14.41294185 -117.35742188 14.41294185 -117.35742188 13.29101562 C-109.11750795 11.85084879 -100.87666859 10.41614888 -92.6346035 8.98834991 C-88.80720124 8.32514163 -84.98014063 7.6600802 -81.15380859 6.99072266 C-77.45874136 6.3443991 -73.76284595 5.70302331 -70.06633377 5.0650177 C-68.65869391 4.82117939 -67.2513574 4.57558284 -65.84434128 4.32817078 C-63.86823947 3.98100418 -61.89092556 3.64075876 -59.91357422 3.30078125 C-58.78994476 3.10536743 -57.66631531 2.90995361 -56.50863647 2.70861816 C-48.27721752 1.61778117 -48.27721752 1.61778117 -45.30273438 3.79492188 C-44.70203125 4.47425781 -44.10132812 5.15359375 -43.48242188 5.85351562 C-39.66157782 9.97944608 -35.62196356 13.63335103 -31.35742188 17.29101562 C-29.85614862 18.60205905 -28.35611353 19.91452188 -26.85742188 21.22851562 C-26.18710938 21.81503906 -25.51679687 22.4015625 -24.82617188 23.00585938 C-24.34148437 23.42996094 -23.85679688 23.8540625 -23.35742188 24.29101562 C-23.14601563 23.76121094 -22.93460937 23.23140625 -22.71679688 22.68554688 C-20.8225993 19.34892874 -18.23715001 16.73845592 -15.60742188 13.97851562 C-12.23621344 10.42439271 -9.01974957 6.92633761 -6.10742188 2.97851562 C-3.35742188 0.29101562 -3.35742188 0.29101562 0 0 Z " fill="#FCB76C" transform="translate(126.357421875,26.708984375)"/>
<path d="M0 0 C8.04752941 3.00099705 14.83513772 12.44281942 20.7121582 18.40332031 C24.14688236 21.88642086 27.59880391 25.34891581 31.0871582 28.77832031 C31.96452637 29.66729004 31.96452637 29.66729004 32.85961914 30.57421875 C34.46862761 32.17348309 34.46862761 32.17348309 37.0871582 33.77832031 C41.44131384 33.41960048 44.89808727 32.14440452 48.81762695 30.27441406 C49.86756836 29.78134766 50.91750977 29.28828125 51.99926758 28.78027344 C53.08014648 28.26400391 54.16102539 27.74773437 55.2746582 27.21582031 C57.43236442 26.18852302 59.59241928 25.16613985 61.75512695 24.14941406 C62.70669678 23.69493896 63.6582666 23.24046387 64.63867188 22.7722168 C67.0871582 21.77832031 67.0871582 21.77832031 70.0871582 21.77832031 C70.0871582 30.02832031 70.0871582 38.27832031 70.0871582 46.77832031 C67.1790332 48.22207031 64.2709082 49.66582031 61.2746582 51.15332031 C52.83286506 55.36315293 44.46498451 59.69725909 36.13012695 64.11425781 C32.39139681 66.09469291 28.64226763 68.05417796 24.88793945 70.00488281 C23.840979 70.54902832 22.79401855 71.09317383 21.71533203 71.65380859 C19.66504701 72.71855507 17.61412517 73.78207638 15.5625 74.84423828 C14.63219971 75.32779785 13.70189941 75.81135742 12.7434082 76.30957031 C11.91647461 76.73818359 11.08954102 77.16679687 10.23754883 77.60839844 C7.89877943 78.83918209 7.89877943 78.83918209 5.0871582 80.77832031 C0.64103212 81.38758877 -1.8072128 79.98591414 -5.54174805 77.65722656 C-6.64663574 76.9767627 -7.75152344 76.29629883 -8.88989258 75.59521484 C-10.08520493 74.84400868 -11.28035071 74.09253742 -12.4753418 73.34082031 C-13.70887895 72.57524583 -14.94310223 71.81077586 -16.17797852 71.04736328 C-18.10509566 69.85555434 -20.03151586 68.66272352 -21.95532227 67.46557617 C-26.58237998 64.58798149 -31.23978302 61.76536618 -35.91674805 58.96972656 C-37.20707897 58.19628728 -38.4973629 57.4227696 -39.78759766 56.64916992 C-41.65412979 55.53026429 -43.5215363 54.41300959 -45.3923645 53.30130005 C-47.12416676 52.2710591 -48.85066616 51.2319199 -50.5769043 50.19238281 C-51.56126465 49.60408691 -52.545625 49.01579102 -53.55981445 48.40966797 C-55.9128418 46.77832031 -55.9128418 46.77832031 -57.9128418 43.77832031 C-59.29426256 35.56798938 -59.033289 27.07579461 -58.9128418 18.77832031 C-42.9128418 26.77832031 -42.9128418 26.77832031 -40.8215332 27.90576172 C-38.08462843 29.15693819 -36.72994796 28.77158571 -33.9128418 27.77832031 C-31.3096706 25.80427095 -31.3096706 25.80427095 -28.7878418 23.27832031 C-27.82001285 22.36060549 -26.84989963 21.44529454 -25.87768555 20.53222656 C-25.3863916 20.06961426 -24.89509766 19.60700195 -24.38891602 19.13037109 C-21.26801555 16.27169647 -17.92560513 13.67652547 -14.6237793 11.03222656 C-10.9475299 7.97574832 -7.5203261 4.67592439 -4.10424805 1.33300781 C-1.9128418 -0.22167969 -1.9128418 -0.22167969 0 0 Z " fill="#FCB76C" transform="translate(94.912841796875,93.2216796875)"/>
<path d="M0 0 C1.10068817 0.44038101 2.20137634 0.88076202 3.3354187 1.33448792 C4.50750885 1.81054977 5.679599 2.28661163 6.88720703 2.77709961 C8.09949982 3.26399765 9.3117926 3.75089569 10.56082153 4.25254822 C13.76869187 5.54101706 16.97359467 6.83671069 20.17791748 8.13397217 C23.45424018 9.45887563 26.7333399 10.77686816 30.01220703 12.09545898 C36.43420008 14.67922747 42.8530821 17.27064533 49.27001953 19.86694336 C47.52477594 23.63190213 45.4481261 25.7785586 42.33251953 28.55444336 C41.845979 28.98942139 41.35943848 29.42439941 40.8581543 29.87255859 C36.67089232 33.58566383 32.34609156 37.12092655 27.97314453 40.61303711 C24.33720193 43.64474069 20.98902624 46.95168023 17.65673828 50.31225586 C15.27001953 51.86694336 15.27001953 51.86694336 12.46923828 51.86303711 C8.47241112 50.61860374 5.04025619 48.83923832 1.39501953 46.80444336 C-0.12747047 45.9745777 -1.65093038 45.14648927 -3.17529297 44.32006836 C-3.9400293 43.9043457 -4.70476563 43.48862305 -5.49267578 43.06030273 C-8.78091568 41.30638342 -12.12914056 39.68440785 -15.47998047 38.05444336 C-25.49333459 33.14240081 -35.09605523 27.47642842 -44.72998047 21.86694336 C-43.32132645 17.64098129 -40.23764449 16.2193448 -36.66748047 13.86694336 C-35.20985709 12.89387143 -33.75284376 11.91988515 -32.29638672 10.94506836 C-31.54373535 10.44297852 -30.79108398 9.94088867 -30.015625 9.42358398 C-27.74924361 7.88006254 -25.53158675 6.2844254 -23.31982422 4.66381836 C-22.612854 4.15334961 -21.90588379 3.64288086 -21.17749023 3.11694336 C-19.82087256 2.13507754 -18.47321975 1.14067489 -17.13598633 0.13256836 C-16.51473877 -0.31086914 -15.89349121 -0.75430664 -15.25341797 -1.21118164 C-14.7163623 -1.60724609 -14.17930664 -2.00331055 -13.62597656 -2.41137695 C-9.18925951 -4.10014023 -4.17470989 -1.68335076 0 0 Z " fill="#FCB76C" transform="translate(44.72998046875,71.133056640625)"/>
<path d="M0 0 C0.60070312 0.67933594 1.20140625 1.35867187 1.8203125 2.05859375 C4.44495551 4.89820753 7.06207058 7.55157935 10.0078125 10.05859375 C13.84564081 13.3568462 17.41830965 16.86989395 20.9453125 20.49609375 C18.09788694 23.34351931 14.81834529 23.52901062 10.9921875 24.265625 C10.18807434 24.4270549 9.38396118 24.5884848 8.55548096 24.75480652 C5.93671989 25.27948068 3.31607556 25.79402232 0.6953125 26.30859375 C-2.87318919 27.01950112 -6.44060661 27.73574682 -10.0078125 28.453125 C-10.88336792 28.6286087 -11.75892334 28.80409241 -12.66101074 28.9848938 C-20.34439564 30.5335891 -27.98567821 32.24248351 -35.59472656 34.12426758 C-40.15150946 35.21581814 -44.34592391 36.0846892 -49.0546875 35.49609375 C-51.6796875 33.58984375 -51.6796875 33.58984375 -54.0546875 30.99609375 C-55.33085938 29.62517578 -55.33085938 29.62517578 -56.6328125 28.2265625 C-57.43203125 27.32550781 -58.23125 26.42445312 -59.0546875 25.49609375 C-60.03695312 24.40748047 -60.03695312 24.40748047 -61.0390625 23.296875 C-62.73738859 21.38437947 -64.3991671 19.44566036 -66.0546875 17.49609375 C-66.63605469 16.8309375 -67.21742187 16.16578125 -67.81640625 15.48046875 C-72.0546875 10.61978256 -72.0546875 10.61978256 -72.0546875 9.49609375 C-63.81477358 8.05592691 -55.57393421 6.62122701 -47.33186913 5.19342804 C-43.50446686 4.53021976 -39.67740626 3.86515833 -35.85107422 3.19580078 C-32.15600699 2.54947722 -28.46011158 1.90810143 -24.7635994 1.27009583 C-23.35595953 1.02625752 -21.94862303 0.78066097 -20.5416069 0.5332489 C-18.56550509 0.18608231 -16.58819118 -0.15416312 -14.61083984 -0.49414062 C-13.48721039 -0.68955444 -12.36358093 -0.88496826 -11.2059021 -1.08630371 C-2.97448314 -2.1771407 -2.97448314 -2.1771407 0 0 Z " fill="#FCB76C" transform="translate(81.0546875,30.50390625)"/>
<path d="M0 0 C1.24795354 12.65781446 1.10177436 25.29542824 1 38 C-2.15886413 40.23752876 -4.82833371 40.18665414 -8.57678223 39.59054565 C-13.79436288 38.31900514 -18.71140128 36.18794126 -23.671875 34.16015625 C-24.8718512 33.67800156 -26.07182739 33.19584686 -27.3081665 32.69908142 C-30.47962275 31.42440764 -33.64624609 30.13812801 -36.81207275 28.84954834 C-39.39662772 27.79988577 -41.98452893 26.75863112 -44.57264328 25.71778202 C-49.92666771 23.56426258 -55.27809293 21.40424686 -60.62402344 19.23071289 C-62.04010895 18.65565758 -62.04010895 18.65565758 -63.48480225 18.06898499 C-65.7069902 17.12453219 -67.85604826 16.10879887 -70 15 C-70 14.67 -70 14.34 -70 14 C-69.35901367 13.87995605 -68.71802734 13.75991211 -68.05761719 13.63623047 C-49.34551259 10.11819595 -30.72991437 6.22333058 -12.13085938 2.15332031 C-10.23303711 1.74098145 -10.23303711 1.74098145 -8.296875 1.3203125 C-7.14026367 1.06781738 -5.98365234 0.81532227 -4.79199219 0.55517578 C-2 0 -2 0 0 0 Z " fill="#B34E1E" transform="translate(102,52)"/>
<path d="M0 0 C-2.79413633 15.37982324 -5.66994753 30.72640738 -9 46 C-12.28603221 44.72308711 -15.45573234 43.33343681 -18.60668945 41.75341797 C-19.48722488 41.31311249 -20.36776031 40.87280701 -21.27497864 40.41915894 C-22.2116185 39.94825836 -23.14825836 39.47735779 -24.11328125 38.9921875 C-25.08283249 38.50670441 -26.05238373 38.02122131 -27.05131531 37.52102661 C-30.13932284 35.97423032 -33.22592569 34.42465395 -36.3125 32.875 C-38.40941311 31.82403498 -40.50641728 30.77325161 -42.60351562 29.72265625 C-47.73673443 27.15054224 -52.8688036 24.57614598 -58 22 C-58 21.01 -58 20.02 -58 19 C-57.45061768 19.3081665 -56.90123535 19.61633301 -56.33520508 19.93383789 C-53.83562559 21.32501134 -51.32446889 22.69383424 -48.8125 24.0625 C-47.51602539 24.79049805 -47.51602539 24.79049805 -46.19335938 25.53320312 C-44.93168945 26.21479492 -44.93168945 26.21479492 -43.64453125 26.91015625 C-42.87471924 27.33433838 -42.10490723 27.75852051 -41.31176758 28.19555664 C-38.43669469 29.19601764 -36.87631687 28.91604149 -34 28 C-31.3968288 26.02595064 -31.3968288 26.02595064 -28.875 23.5 C-27.90717106 22.58228518 -26.93705783 21.66697423 -25.96484375 20.75390625 C-25.4735498 20.29129395 -24.98225586 19.82868164 -24.47607422 19.35205078 C-22.21175847 17.27798849 -19.82968322 15.36142608 -17.4375 13.4375 C-12.77841033 9.68880716 -8.3613349 5.73820946 -3.99609375 1.65234375 C-2 0 -2 0 0 0 Z " fill="#B4501F" transform="translate(95,93)"/>
<path d="M0 0 C6.24593581 5.14623872 11.88332423 10.80339213 17.5625 16.5625 C21.01802669 20.06645733 24.49084471 23.54973551 28 27 C28.5863623 27.59409668 29.17272461 28.18819336 29.77685547 28.80029297 C31.38475456 30.398609 31.38475456 30.398609 34 32 C38.35412837 31.64087325 41.81089334 30.36610126 45.73046875 28.49609375 C46.78041016 28.00302734 47.83035156 27.50996094 48.91210938 27.00195312 C49.99298828 26.48568359 51.07386719 25.96941406 52.1875 25.4375 C54.34520621 24.41020271 56.50526107 23.38781954 58.66796875 22.37109375 C59.61953857 21.91661865 60.5711084 21.46214355 61.55151367 20.99389648 C64 20 64 20 67 20 C67 22.64 67 25.28 67 28 C55.12 32.95 43.24 37.9 31 43 C27.73927367 39.73927367 25.33569129 37.31552671 22.8359375 33.6640625 C22.27608154 32.85380615 21.71622559 32.0435498 21.1394043 31.20874023 C20.55715088 30.35610596 19.97489746 29.50347168 19.375 28.625 C14.4690735 21.51436744 9.4904499 14.48022484 4.28857422 7.58251953 C2.40222902 5.05416775 1.00565156 3.01695467 0 0 Z " fill="#B55120" transform="translate(98,95)"/>
<path d="M0 0 C1.5 1.375 1.5 1.375 3 3 C3 3.66 3 4.32 3 5 C5.31 4.34 7.62 3.68 10 3 C10.12036664 8.77759884 9.8320582 14.27959989 9 20 C7.686298 19.3566152 6.37407102 18.71021785 5.0625 18.0625 C4.33160156 17.70285156 3.60070312 17.34320313 2.84765625 16.97265625 C1 16 1 16 0 15 C-0.07313567 12.46950598 -0.09247527 9.96695163 -0.0625 7.4375 C-0.05798828 6.72658203 -0.05347656 6.01566406 -0.04882812 5.28320312 C-0.03700864 3.52209987 -0.01907263 1.76103964 0 0 Z " fill="#D58138" transform="translate(61,138)"/>
</svg>
